<?xml version="1.0" encoding="UTF-8"?>
<svg id="Layer_1" data-name="Layer 1" xmlns="http://www.w3.org/2000/svg" viewBox="0 0 620.89 480.18">
  <defs>
    <style>
      .cls-1 {
        fill: #2b5943;
      }
    </style>
  </defs>
  <path class="cls-1" d="M190.66,1.89c20.56,2.76,32.78,18.02,34.6,38,2.53,27.89,2.81,86.97-.18,114.53-1.64,15.06-8.33,22.72-18.37,33.1,13.72,3.58,17.49,18.82,18.55,31.28,5.23,61.02-3.93,129.02.11,190.78l-2.62,5.82h-25.34l-2.62-5.82c-4.78-59.14,6.77-129.42-.1-187.25-2.27-19.13-12.76-21.09-30.22-19.6v210.98c-1.66-.55-3.66,1.69-4.22,1.69h-25.34l-2.53-2.53V4.43l2.53-2.53c17.43,1.68,38.85-2.27,55.74,0ZM164.47,30.59v143.46c15.04.5,27.55.83,30-16.44,3.35-23.63,2.32-79.46.48-104.31-1.7-22.91-8.38-24.05-30.48-22.71Z"/>
  <path class="cls-1" d="M345.21,415.41h-27.87l-2.17-2.89-12.18-160.83h-23.65c-1.86,21.01-3.73,42.25-5.05,63.31-1.65,26.33-1.69,52.96-3.41,79.29-.4,6.09-1.31,16.68-4.21,21.11h-25.34c-4.23-6.09-2.83-18.3-2.52-26.14,4.48-112.7,14.13-229.83,21.87-342.71,1.02-14.83,3.49-29.74,3.45-44.66h43.07l38.01,413.52ZM286.11,62.67c-2.84,39.45-3.42,79.24-5.1,118.96-.29,6.75-4.57,39.21-.09,42.32h15.42s1.35-2.03,1.35-2.03c1.97-17.5-2.1-34.8-3.12-52.11-1.93-32.58-2.45-65.43-5.1-97.85-.17-2.04-.64-9.03-3.34-9.29Z"/>
  <path class="cls-1" d="M79.17,1.89c5.09.68,19.25,6.66,23.2,10.1,17.18,15.01,17.41,70.91-7.17,81.88,24.02,10.2,23.95,41.87,22.04,64.2-1.54,17.96-9.96,32.71-28.03,37.82-20.33,5.75-47.53,4.01-68.31,1.78V4.43l2.53-2.53c17.43,1.68,38.85-2.27,55.74,0ZM52.99,81.22c24.28,2.72,31.41-3.81,30.48-27.92-.88-22.7-9.4-24.21-30.48-22.71v50.63ZM52.99,112.45v55.7c4.99,5.31,25.35,2.17,29.52-2.58,3.82-4.34,3.74-41.08,1.3-46.79-3.64-8.54-19.94-9.69-28.02-8.59l-2.8,2.26Z"/>
  <path class="cls-1" d="M541.99.21h25.34l2.53,2.53v381.45l2.53,2.53h45.61l2.27,2.8c-.46,8.08,2.81,19.47-2.27,25.9h-76.01l-2.53-2.53V2.74l2.53-2.53Z"/>
  <polygon class="cls-1" points="385.75 172.36 444.87 172.36 444.87 198.52 442.34 201.06 351.97 201.06 351.97 171.52 411.09 28.9 355.35 28.9 355.35 2.74 357.88 .21 442.34 .21 444.87 2.74 444.87 28.06 385.75 172.36"/>
  <path class="cls-1" d="M373.08,233.13l21.13,140.09,4.95-7.7,18.68-132.39h25.34l-25.4,176.31c-.22,2.12-1.37,4.2-3.31,5.14-3.68,1.79-37.05,1.56-39.87-.69l-29.08-176.94,2.22-3.82h25.34Z"/>
  <path class="cls-1" d="M113.8,219.62v27.01h-30.4c.55,1.66-1.69,3.66-1.69,4.22v164.56h-27.87l-2.53-2.53v-163.72l-2.53-2.53h-27.03c-4.15-6.09-4.1-21.11,0-27.01h92.06Z"/>
  <path class="cls-1" d="M519.19,233.13c-.97,7,2.54,16.58-2.53,21.94h-38.01v71.73l2.53,2.53h29.56c1.08,7.36,2.25,12.89,0,20.25h-27.87c-.29,0-2.98,2.6-3.35,3.4-1.38,2.94-1.66,31.93-.87,36.26.35,1.89.86,3.16,2.53,4.22h38.01c-.97,7,2.54,16.58-2.53,21.94h-57.43l-2.53-182.28h62.5Z"/>
  <rect class="cls-1" x="473.58" y="30.59" width="32.09" height="168.87"/>
  <path class="cls-1" d="M473.58,20.46l.24-18.33c1.79-2.87,29.85-2.82,31.62,0l.24,18.33h-32.09Z"/>
  <g>
    <path class="cls-1" d="M21.58,429.23h28.86v7.19h-9.76v43.11h-9.34v-43.11h-9.76v-7.19Z"/>
    <path class="cls-1" d="M53.74,441.3c0-8.05,5.01-12.65,14.17-12.65s14.17,4.6,14.17,12.65v26.16c0,8.05-5.01,12.65-14.17,12.65s-14.17-4.6-14.17-12.65v-26.16ZM63.08,467.96c0,3.59,1.87,4.96,4.84,4.96s4.84-1.37,4.84-4.96v-27.16c0-3.59-1.87-4.96-4.84-4.96s-4.84,1.37-4.84,4.96v27.16Z"/>
    <path class="cls-1" d="M97.02,429.23v38.8c0,3.59,1.87,4.89,4.84,4.89s4.84-1.29,4.84-4.89v-38.8h8.83v38.3c0,8.05-4.75,12.65-13.92,12.65s-13.92-4.6-13.92-12.65v-38.3h9.34Z"/>
    <path class="cls-1" d="M141.41,479.53c-.51-1.29-.85-2.08-.85-6.18v-7.9c0-4.67-1.87-6.4-6.11-6.4h-3.23v20.48h-9.34v-50.3h14.09c9.68,0,13.83,3.81,13.83,11.57v3.95c0,5.17-1.95,8.55-6.11,10.2,4.67,1.65,6.2,5.46,6.2,10.71v7.76c0,2.44.08,4.24,1.02,6.11h-9.51ZM131.22,436.42v15.45h3.65c3.48,0,5.6-1.29,5.6-5.32v-4.96c0-3.59-1.44-5.17-4.75-5.17h-4.5Z"/>
    <path class="cls-1" d="M156,429.23h9.34v50.3h-9.34v-50.3Z"/>
    <path class="cls-1" d="M184.69,428.66c9.08,0,13.75,4.6,13.75,12.65v1.58h-8.83v-2.08c0-3.59-1.7-4.96-4.67-4.96s-4.67,1.37-4.67,4.96c0,10.35,18.25,12.29,18.25,26.66,0,8.05-4.75,12.65-13.92,12.65s-13.92-4.6-13.92-12.65v-3.09h8.83v3.59c0,3.59,1.87,4.89,4.84,4.89s4.84-1.29,4.84-4.89c0-10.35-18.25-12.29-18.25-26.66,0-8.05,4.67-12.65,13.75-12.65Z"/>
    <path class="cls-1" d="M223.64,464.94l6.37-35.71h12.98v50.3h-8.83v-36.07l-6.45,36.07h-8.83l-6.96-35.57v35.57h-8.15v-50.3h12.98l6.87,35.71Z"/>
    <path class="cls-1" d="M269.47,452.94c-4.41-1.58-6.45-4.96-6.45-10.35v-.93c0-8.05,4.58-12.43,13.92-12.43h10.69v7.19h-10.52c-2.97,0-4.75,1.29-4.75,4.89v3.09c0,4.02,2.12,5.32,5.6,5.32h4.07v-5.6h9.34v5.6h2.46v7.19h-2.46v16.53c0,2.44.08,4.24,1.02,6.11h-9.51c-.42-1.01-.68-1.72-.85-3.95-1.61,2.95-4.5,4.53-8.66,4.53-6.87,0-10.35-4.1-10.35-11.5v-5.1c0-5.1,1.87-8.84,6.45-10.56ZM277.19,472.92c2.8,0,4.67-1.22,4.84-4.38v-11.64h-3.56c-4.24,0-6.11,1.72-6.11,6.39v4.67c0,3.59,1.87,4.96,4.84,4.96Z"/>
    <path class="cls-1" d="M320.55,450.43h12.82v7.19h-12.82v14.73h16.12v7.19h-25.46v-50.3h25.46v7.19h-16.12v14.01Z"/>
    <path class="cls-1" d="M373.6,429.23l-9.76,24.43,10.44,25.87h-9.84l-7.64-19.9-7.72,19.9h-8.74l10.44-25.87-9.76-24.43h9.67l7.04,18.54,7.21-18.54h8.66Z"/>
    <path class="cls-1" d="M406.61,441.66v6.54c0,8.05-4.58,12.43-13.92,12.43h-4.41v18.9h-9.34v-50.3h13.75c9.34,0,13.92,4.38,13.92,12.43ZM388.28,436.42v17.03h4.41c2.97,0,4.58-1.15,4.58-4.74v-7.54c0-3.59-1.61-4.74-4.58-4.74h-4.41Z"/>
    <path class="cls-1" d="M420.69,450.43h12.82v7.19h-12.82v14.73h16.12v7.19h-25.46v-50.3h25.46v7.19h-16.12v14.01Z"/>
    <path class="cls-1" d="M462.11,479.53c-.51-1.29-.85-2.08-.85-6.18v-7.9c0-4.67-1.87-6.4-6.11-6.4h-3.22v20.48h-9.34v-50.3h14.09c9.67,0,13.83,3.81,13.83,11.57v3.95c0,5.17-1.95,8.55-6.11,10.2,4.67,1.65,6.2,5.46,6.2,10.71v7.76c0,2.44.08,4.24,1.02,6.11h-9.5ZM451.92,436.42v15.45h3.65c3.48,0,5.6-1.29,5.6-5.32v-4.96c0-3.59-1.44-5.17-4.75-5.17h-4.5Z"/>
    <path class="cls-1" d="M476.7,429.23h9.34v50.3h-9.34v-50.3Z"/>
    <path class="cls-1" d="M502.16,450.43h12.82v7.19h-12.82v14.73h16.12v7.19h-25.46v-50.3h25.46v7.19h-16.12v14.01Z"/>
    <path class="cls-1" d="M532.38,443.1v36.43h-8.4v-50.3h11.71l9.59,30.11v-30.11h8.32v50.3h-9.59l-11.63-36.43Z"/>
    <path class="cls-1" d="M587.37,460.78v6.68c0,8.05-4.75,12.65-13.92,12.65s-13.92-4.6-13.92-12.65v-26.16c0-8.05,4.75-12.65,13.92-12.65s13.92,4.6,13.92,12.65v4.89h-8.83v-5.39c0-3.59-1.87-4.96-4.84-4.96s-4.84,1.37-4.84,4.96v27.16c0,3.59,1.87,4.89,4.84,4.89s4.84-1.29,4.84-4.89v-7.19h8.83Z"/>
    <path class="cls-1" d="M602.39,450.43h12.82v7.19h-12.82v14.73h16.12v7.19h-25.46v-50.3h25.46v7.19h-16.12v14.01Z"/>
  </g>
</svg>