<?xml version="1.0" encoding="UTF-8"?>
<svg id="Layer_1" data-name="Layer 1" xmlns="http://www.w3.org/2000/svg" viewBox="0 0 527.68 490.69">
  <defs>
    <style>
      .cls-1 {
        fill: none;
        stroke: #f6c95c;
        stroke-miterlimit: 10;
        stroke-width: 2px;
      }
    </style>
  </defs>
  <path class="cls-1" d="M381.66,64.57c35.23-30.13,88.58-57.27,128.7-17.93,17.89,17.54,28.28,65.42-8.05,60.96-27.55-3.38-63.29-32.27-91.71-11.03-1.88,1.4-3.78.03-2.66,4.85,35.15,4.82,118.37,13.29,118.51,62.43.09,31.43-32.56,21.63-50.87,12.8-15.7-7.57-55.08-41.75-68.63-39.32-12.11,2.17-5.46,12.43,2,17.06,23.22,14.42,45.81,10.87,66.67,37.02,28.96,36.3,22.05,109.3-34.5,74.69-24.69-15.11-64.17-76.22-83.03-79.9-10.01-1.95-17.46-.98-15.42,10.97,3.9,22.79,49.01,45.93,65.05,62.12,19.43,19.62,38.74,65.79,18.06,89.57-30.51,35.07-57.97-35.66-69.05-53.4-11.5-18.41-38.32-60.25-54.52-72.44-11.55-8.69-24.02,1.05-23.34,12.61.44,7.61,46.55,69.49,54.58,83.1,18.54,31.43,36.46,65.46,32.16,103.28-2.25,19.85-24.11,49.38-45.19,34.59-15.93-11.18-31.52-76.43-39.43-98.12-10.73-29.4-33.77-89.93-51.15-113.91-6.99-9.64-17.69-10.78-20.45,2.29-4.18,19.83,19.62,59.8,25.55,81.48,11.66,42.62,11.31,86.43-10.79,125.75-14.62,26.01-39.35,39.42-44.78-.37-3.14-23.04-.55-46.76-2.15-69.79-1.16-16.64-6.49-76.07-13.84-87.73-8.64-13.71-23.08-4.88-30.23,5.53-31.56,45.95,13.97,117.5-9.28,168.47-16.37,35.87-44.99,14.88-64.1-4.79-55.92-57.57-45.64-113.69,1.13-172.44,15.33-19.26,38.6-36.72,52.8-55.13,4.1-5.31,11.83-14.95,1.51-17.62-23.61,14.01-46.16,36.27-61.6,59.11-8.6,12.72-19.29,45.47-39.41,39.13-22.46-7.09-11.34-44.9-2.43-59.8,22.03-36.86,66.71-45.8,93.37-71.69,4.35-4.23,10.17-10.89,2.25-14.66-12.51-5.95-41.17,18.27-50.02,27.2-10.34,10.44-32.99,49.62-50.4,22.45-22.44-35.04,45.97-70.17,71.27-78.82,15.95-5.45,71.26-13.42,77.99-23.59,10.05-15.18-19.68-20.32-30.18-19.78-25.76,1.34-30.82,16.97-48.96,25.3-22.73,10.43-36.06-4.93-27.24-27.24,13.62-34.45,59.89-62.13,96.14-46.61,16.13,6.91,33.17,35.73,47.98,21.31.04-22.62-41.45-34.12-19.98-57.95C189.99-3.19,223.72-.48,244.47,5.66c54.29,16.07,43.52,40.66,64.39,79.51,20.35,37.9,54.89-5.27,72.81-20.6Z"/>
</svg>